# Blender 4.3.2
# www.blender.org
mtllib robot.mtl
o Cube.001
v 0.230399 -1.052603 -1.141091
v 0.230399 -0.070195 -0.939352
v 0.230399 -0.944001 -0.890081
v 0.230399 -0.194560 -0.736183
v -0.227551 -1.052603 -1.141091
v -0.227551 -0.070195 -0.939352
v -0.227551 -0.944001 -0.890081
v -0.227551 -0.194560 -0.736183
v 0.230399 -1.052603 1.141090
v 0.230399 -0.070195 0.939353
v 0.230399 -0.944001 0.890081
v 0.230399 -0.194560 0.736183
v -0.227551 -1.052603 1.141090
v -0.227551 -0.070195 0.939353
v -0.227551 -0.944001 0.890081
v -0.227551 -0.194560 0.736183
v 1.000000 0.000000 -1.000000
v 1.000000 2.000000 -1.000000
v 1.000000 0.000000 1.000000
v 1.000000 2.000000 1.000000
v -1.000000 0.000000 -1.000000
v -1.000000 2.000000 -1.000000
v -1.000000 0.000000 1.000000
v -1.000000 2.000000 1.000000
v 0.525683 -0.066259 0.728051
v 0.525683 -0.066259 -0.728051
v -0.525683 -0.066259 0.728051
v -0.525683 -0.066259 -0.728051
v 0.525683 -0.818475 0.728051
v 0.525683 -0.818475 -0.728051
v -0.525683 -0.818475 0.728051
v -0.525683 -0.818475 -0.728051
v 0.525683 -0.818475 0.000000
v -0.525683 -0.818475 0.000000
v 0.420546 -1.318571 -0.072805
v 0.420546 -1.318571 -0.655246
v -0.420546 -1.318571 -0.655246
v -0.420546 -1.318571 -0.072805
v -0.420546 -1.318678 0.655246
v 0.420546 -1.318678 0.655246
v -0.420546 -1.318678 0.072805
v 0.420546 -1.318678 0.072805
vn 1.0000 -0.0000 -0.0000
vn -0.0000 -0.2012 0.9796
vn -1.0000 -0.0000 -0.0000
vn -0.0000 0.2012 -0.9796
vn -0.0000 -0.9178 0.3971
vn -0.0000 0.8529 0.5221
vn -0.0000 -0.2012 -0.9796
vn -0.0000 0.2012 0.9796
vn -0.0000 -0.9178 -0.3971
vn -0.0000 0.8529 -0.5221
vn -0.0000 -0.0000 1.0000
vn -0.0000 -0.0000 -1.0000
vn -0.0000 -0.9716 -0.2367
vn -0.0000 1.0000 -0.0000
vn -0.0000 -0.9716 0.2367
vn 0.1384 -0.9904 -0.0000
vn -0.1384 -0.9904 -0.0000
vn -0.0000 -0.1441 -0.9896
vn -0.0000 -0.1440 0.9896
vn -0.0000 -1.0000 -0.0000
vn -0.0000 -0.1441 0.9896
vn 0.9786 -0.2057 -0.0000
vn -0.9786 -0.2057 -0.0000
vn -0.0000 -0.1440 -0.9896
vt 0.962472 0.000000
vt 0.998435 0.135478
vt 0.962472 0.160639
vt 0.645799 0.843532
vt 0.719318 0.964903
vt 0.645799 0.964903
vt 0.964037 0.946420
vt 1.000000 0.810942
vt 1.000000 0.971581
vt 0.572280 0.843532
vt 0.645799 0.999493
vt 0.572280 0.999493
vt 0.517311 0.917068
vt 0.477014 0.843549
vt 0.517311 0.843549
vt 0.065233 0.949437
vt 0.032617 0.875918
vt 0.065233 0.875918
vt 0.928075 0.946420
vt 0.964037 0.810942
vt 0.964037 0.971581
vt 0.403495 0.964920
vt 0.477014 0.843549
vt 0.477014 0.964920
vt 0.997680 0.456557
vt 0.961718 0.321079
vt 0.997680 0.334012
vt 0.902597 0.798117
vt 0.976116 0.642157
vt 0.976116 0.798117
vt 0.557607 0.843549
vt 0.517311 0.917068
vt 0.517311 0.843549
vt 0.032617 0.875918
vt 0.000000 0.949437
vt 0.000000 0.875918
vt 0.641403 0.642157
vt 0.961718 0.321079
vt 0.961718 0.642157
vt 0.320701 0.642157
vt 0.641403 0.321078
vt 0.642157 0.321078
vt 0.962472 0.000000
vt 0.962472 0.321078
vt 0.000000 0.642157
vt 0.320701 0.321078
vt 0.320701 0.642157
vt 0.000000 0.000000
vt 0.043658 0.244932
vt -0.000000 0.321078
vt 0.642157 0.321078
vt 0.321078 0.000000
vt 0.642157 0.000000
vt 0.741066 0.642157
vt 0.572280 0.762775
vt 0.572280 0.642157
vt 0.321078 0.321078
vt 0.277420 0.076147
vt 0.321078 0.000000
vt 0.043658 0.076147
vt 0.277420 0.244932
vt 0.741066 0.762775
vt 0.589159 0.843532
vt 0.572280 0.642157
vt 0.403495 0.762775
vt 0.403495 0.642157
vt 0.201748 0.642157
vt 0.322221 0.759038
vt 0.322221 0.875918
vt 0.000000 0.642157
vt 0.120473 0.759038
vt 0.120473 0.875918
vt 0.572280 0.762775
vt 0.420373 0.843549
vt 0.834570 0.945970
vt 0.741066 0.810942
vt 0.834570 0.810942
vt 0.821840 0.642157
vt 0.902597 0.794064
vt 0.821840 0.810942
vt 0.201730 0.864230
vt 0.322221 0.642157
vt 0.403478 0.747350
vt 0.928075 0.945970
vt 0.834570 0.810942
vt 0.928075 0.810942
vt 0.741066 0.642157
vt 0.821840 0.794064
vt 0.741066 0.810942
vt 0.120473 0.642157
vt 0.201747 0.747350
vt 0.403495 0.864230
vt 0.998435 0.012933
vt 0.719318 0.843532
vt 0.964037 0.823875
vt 0.645799 0.843532
vt 0.477014 0.917068
vt 0.032617 0.949437
vt 0.928075 0.823875
vt 0.403495 0.843549
vt 0.961718 0.481717
vt 0.902597 0.642157
vt 0.557607 0.917068
vt 0.032617 0.949437
vt 0.641403 0.321079
vt 0.320701 0.321078
vt 0.642157 -0.000000
vt 0.000000 0.321078
vt 0.321078 0.321078
vt 0.724187 0.843532
vt 0.201748 0.875918
vt 0.000000 0.875918
vt 0.555402 0.843549
vt 0.741066 0.945970
vt 0.902597 0.659035
vt 0.201730 0.770726
vt 0.403478 0.653845
vt 0.834570 0.945970
vt 0.821840 0.659035
vt 0.201747 0.653845
vt 0.403495 0.770726
s 0
f 2/1/1 3/2/1 1/3/1
f 4/4/2 7/5/2 3/6/2
f 7/7/3 6/8/3 5/9/3
f 6/10/4 1/11/4 5/12/4
f 7/13/5 1/14/5 3/15/5
f 4/16/6 6/17/6 8/18/6
f 11/19/1 10/20/1 9/21/1
f 15/22/7 12/23/7 11/24/7
f 15/25/3 14/26/3 16/27/3
f 9/28/8 14/29/8 13/30/8
f 9/31/9 15/32/9 11/33/9
f 14/34/10 12/35/10 16/36/10
f 18/37/1 19/38/1 17/39/1
f 20/40/11 23/41/11 19/37/11
f 24/42/3 21/43/3 23/44/3
f 22/45/12 17/46/12 21/47/12
f 17/48/13 28/49/13 21/50/13
f 20/51/14 22/52/14 24/53/14
f 26/54/12 32/55/12 28/56/12
f 23/57/15 25/58/15 19/59/15
f 19/59/16 26/60/16 17/48/16
f 21/50/17 27/61/17 23/57/17
f 30/62/18 37/63/18 32/55/18
f 27/64/11 29/65/11 25/66/11
f 28/67/3 34/68/3 31/69/3
f 25/70/1 33/71/1 30/72/1
f 31/73/19 40/74/19 29/65/19
f 38/75/20 36/76/20 35/77/20
f 34/78/21 35/79/21 33/80/21
f 33/71/22 36/81/22 30/72/22
f 32/82/23 38/83/23 34/68/23
f 39/84/20 42/85/20 40/86/20
f 33/87/24 41/88/24 34/89/24
f 29/90/22 42/91/22 33/71/22
f 34/68/23 39/92/23 31/69/23
f 2/1/1 4/93/1 3/2/1
f 4/4/2 8/94/2 7/5/2
f 7/7/3 8/95/3 6/8/3
f 6/10/4 2/96/4 1/11/4
f 7/13/5 5/97/5 1/14/5
f 4/16/6 2/98/6 6/17/6
f 11/19/1 12/99/1 10/20/1
f 15/22/7 16/100/7 12/23/7
f 15/25/3 13/101/3 14/26/3
f 9/28/8 10/102/8 14/29/8
f 9/31/9 13/103/9 15/32/9
f 14/34/10 10/104/10 12/35/10
f 18/37/1 20/105/1 19/38/1
f 20/40/11 24/106/11 23/41/11
f 24/42/3 22/107/3 21/43/3
f 22/45/12 18/108/12 17/46/12
f 17/48/13 26/60/13 28/49/13
f 20/51/14 18/109/14 22/52/14
f 26/54/12 30/62/12 32/55/12
f 23/57/15 27/61/15 25/58/15
f 19/59/16 25/58/16 26/60/16
f 21/50/17 28/49/17 27/61/17
f 30/62/18 36/110/18 37/63/18
f 27/64/11 31/73/11 29/65/11
f 31/69/3 27/111/3 28/67/3
f 28/67/3 32/82/3 34/68/3
f 30/72/1 26/112/1 25/70/1
f 25/70/1 29/90/1 33/71/1
f 31/73/19 39/113/19 40/74/19
f 38/75/20 37/114/20 36/76/20
f 34/78/21 38/115/21 35/79/21
f 33/71/22 35/116/22 36/81/22
f 32/82/23 37/117/23 38/83/23
f 39/84/20 41/118/20 42/85/20
f 33/87/24 42/119/24 41/88/24
f 29/90/22 40/120/22 42/91/22
f 34/68/23 41/121/23 39/92/23
